<?xml version="1.0" encoding="UTF-8"?>
<!DOCTYPE svg PUBLIC "-//W3C//DTD SVG 1.1//EN" "http://www.w3.org/Graphics/SVG/1.1/DTD/svg11.dtd">
<!-- Creator: CorelDRAW -->
<svg xmlns="http://www.w3.org/2000/svg" xml:space="preserve" width="12.7mm" height="12.7mm" version="1.1" style="shape-rendering:geometricPrecision; text-rendering:geometricPrecision; image-rendering:optimizeQuality; fill-rule:evenodd; clip-rule:evenodd"
viewBox="0 0 48.48 48.48"
 xmlns:xlink="http://www.w3.org/1999/xlink"
 xmlns:xodm="http://www.corel.com/coreldraw/odm/2003">
 <defs>
  <style type="text/css">
   <![CDATA[
    .str0 {stroke:white;stroke-width:1.01;stroke-miterlimit:22.9256}
    .fil1 {fill:none}
    .fil3 {fill:none;fill-rule:nonzero}
    .fil2 {fill:#39FF14;fill-rule:nonzero}
    .fil0 {fill:#434A5A;fill-rule:nonzero}
    .fil4 {fill:white;fill-rule:nonzero}
   ]]>
  </style>
 </defs>
 <g id="Layer_x0020_1">
  <metadata id="CorelCorpID_0Corel-Layer"/>
  <circle id="Ellipse_x0020_19" class="fil0" cx="24.24" cy="24.24" r="24.24"/>
  <g id="_1938629692992">
   <path class="fil1 str0" d="M31.31 37.12l0 0.51 0.51 0 1.52 0c0.34,0 0.63,0.29 0.63,0.63 0,0.34 -0.29,0.63 -0.63,0.63l-18.18 0c-0.34,0 -0.63,-0.29 -0.63,-0.63 0,-0.34 0.29,-0.63 0.63,-0.63l1.52 0 0.51 0 0 -0.51 0 -0.38c0,-1.39 1.14,-2.53 2.53,-2.53l3.41 0 0.51 0 0 -0.51 0 -2.92c0.21,0.01 0.42,0.02 0.63,0.02 0.21,0 0.42,-0 0.63,-0.02l0 2.92 0 0.51 0.51 0 3.41 0c1.39,0 2.53,1.14 2.53,2.53l0 0.38z"/>
   <path class="fil2" d="M14.42 23.7c-1,-0.38 -1.88,-1 -2.58,-1.7 -1.41,-1.56 -2.33,-3.42 -2.33,-5.61 0,-2.18 1.71,-3.89 3.89,-3.89l0.85 0c-0.39,0.8 -0.62,1.7 -0.62,2.65l0 4.55c0,1.42 0.27,2.77 0.79,4z"/>
   <path class="fil2" d="M38.97 16.39c0,2.18 -0.92,4.05 -2.33,5.61 -0.7,0.7 -1.58,1.32 -2.58,1.7 0.51,-1.23 0.79,-2.58 0.79,-4l0 -4.55c0,-0.95 -0.23,-1.85 -0.62,-2.65l0.85 0c2.18,0 3.89,1.71 3.89,3.89z"/>
   <path class="fil3 str0" d="M27.98 20.35l0.01 -0.01 0.01 -0.01 0.94 -1.15c0.37,-0.44 0.54,-0.99 0.37,-1.5 -0.17,-0.51 -0.62,-0.86 -1.18,-1.01l0 0 -0 -0 -1.44 -0.36c-0.03,-0.01 -0.1,-0.04 -0.17,-0.1 -0.08,-0.06 -0.13,-0.12 -0.15,-0.15l0 0 -0.01 -0.01 -0.8 -1.24 -0 -0c-0.31,-0.48 -0.78,-0.81 -1.32,-0.81 -0.54,0 -1,0.33 -1.32,0.81l-0 0 -0.8 1.24 0 0 -0.01 0.01c-0.02,0.03 -0.07,0.09 -0.15,0.15 -0.08,0.06 -0.14,0.09 -0.17,0.1l-1.44 0.36 0 0 -0 0c-0.56,0.14 -1.01,0.49 -1.18,1.01 -0.17,0.52 -0,1.06 0.37,1.5l0.94 1.15 0.01 0.01 0.01 0.01c0.01,0.01 0.05,0.07 0.08,0.16 0.03,0.09 0.04,0.16 0.03,0.2l0 0 -0.09 1.48c0,0 0,0 0,0 -0.04,0.58 0.15,1.11 0.59,1.43 0.44,0.32 1,0.33 1.54,0.12l0 -0 1.37 -0.54c0.04,-0.01 0.11,-0.03 0.22,-0.03 0.1,0 0.18,0.01 0.22,0.03l1.37 0.54 0 0c0.54,0.21 1.1,0.2 1.54,-0.12 0.44,-0.32 0.62,-0.85 0.59,-1.43 0,-0 0,-0 0,-0l-0.09 -1.48 0 0 0 -0c-0,-0.03 0,-0.1 0.03,-0.2 0.03,-0.09 0.07,-0.15 0.08,-0.16zm-8.28 -10.76l9.09 0c3.07,0 5.56,2.49 5.56,5.56l0 4.55c0,5.58 -4.52,10.1 -10.1,10.1 -5.58,0 -10.1,-4.52 -10.1,-10.1l0 -4.55c0,-3.07 2.49,-5.56 5.56,-5.56z"/>
   <path class="fil4" d="M28.54 18.86l-0.94 1.15c-0.15,0.17 -0.26,0.5 -0.24,0.73l0.09 1.49c0.06,0.91 -0.59,1.38 -1.44,1.05l-1.38 -0.55c-0.21,-0.08 -0.58,-0.08 -0.79,0l-1.38 0.55c-0.85,0.33 -1.5,-0.14 -1.44,-1.05l0.09 -1.49c0.02,-0.23 -0.09,-0.56 -0.24,-0.73l-0.94 -1.15c-0.59,-0.7 -0.33,-1.47 0.55,-1.7l1.44 -0.36c0.23,-0.06 0.5,-0.27 0.62,-0.47l0.8 -1.24c0.5,-0.77 1.29,-0.77 1.79,0l0.8 1.24c0.12,0.2 0.39,0.41 0.62,0.47l1.44 0.36c0.88,0.23 1.14,1 0.55,1.7z"/>
  </g>
 </g>
</svg>
