<svg width="128" height="128" viewBox="0 0 128 128" fill="none" xmlns="http://www.w3.org/2000/svg">
<path d="M64 127.333C55.2389 127.333 47.0056 125.67 39.3 122.343C31.5944 119.016 24.8917 114.504 19.1917 108.808C13.4917 103.113 8.98022 96.4098 5.65733 88.7C2.33444 80.9902 0.670887 72.7569 0.666665 64C0.662442 55.2431 2.326 47.0098 5.65733 39.3C8.98867 31.5902 13.5001 24.8875 19.1917 19.1917C24.8832 13.4959 31.586 8.98447 39.3 5.65735C47.014 2.33024 55.2473 0.666687 64 0.666687C72.7527 0.666687 80.986 2.33024 88.7 5.65735C96.414 8.98447 103.117 13.4959 108.808 19.1917C114.5 24.8875 119.013 31.5902 122.349 39.3C125.685 47.0098 127.346 55.2431 127.333 64C127.321 72.7569 125.657 80.9902 122.343 88.7C119.028 96.4098 114.517 103.113 108.808 108.808C103.1 114.504 96.3971 119.018 88.7 122.349C81.0029 125.68 72.7696 127.342 64 127.333ZM64 114.667C69.7 114.667 75.1889 113.744 80.4667 111.899C85.7444 110.054 90.6 107.388 95.0333 103.9L24.1 32.9667C20.6167 37.4 17.9503 42.2556 16.101 47.5334C14.2517 52.8111 13.3291 58.3 13.3333 64C13.3333 78.1445 18.2417 90.125 28.0583 99.9417C37.875 109.758 49.8556 114.667 64 114.667ZM103.9 95.0334C107.383 90.6 110.05 85.7445 111.899 80.4667C113.748 75.1889 114.671 69.7 114.667 64C114.667 49.8556 109.758 37.875 99.9417 28.0584C90.125 18.2417 78.1444 13.3334 64 13.3334C58.3 13.3334 52.8111 14.2559 47.5333 16.101C42.2556 17.9461 37.4 20.6125 32.9667 24.1L103.9 95.0334Z" fill="white"/>
</svg>
