<?xml version="1.0" encoding="UTF-8"?>
<!DOCTYPE svg PUBLIC "-//W3C//DTD SVG 1.1//EN" "http://www.w3.org/Graphics/SVG/1.1/DTD/svg11.dtd">
<!-- Creator: CorelDRAW -->
<svg xmlns="http://www.w3.org/2000/svg" xml:space="preserve" width="5.4187mm" height="5.4187mm" version="1.1" style="shape-rendering:geometricPrecision; text-rendering:geometricPrecision; image-rendering:optimizeQuality; fill-rule:evenodd; clip-rule:evenodd"
viewBox="0 0 33.34 33.34"
 xmlns:xlink="http://www.w3.org/1999/xlink"
 xmlns:xodm="http://www.corel.com/coreldraw/odm/2003">
 <defs>
  <style type="text/css">
   <![CDATA[
    .fil0 {fill:#454C5F}
    .fil2 {fill:#39FF14;fill-rule:nonzero}
    .fil1 {fill:white;fill-rule:nonzero}
   ]]>
  </style>
 </defs>
 <g id="Layer_x0020_1">
  <metadata id="CorelCorpID_0Corel-Layer"/>
  <circle class="fil0" cx="16.67" cy="16.67" r="16.67"/>
  <g id="_2960056147360">
   <path class="fil1" d="M26.84 11.24l0 10.85c0,1.8 -0.48,3.29 -1.51,4.33 -0.96,0.96 -2.38,1.5 -4.32,1.5l-8.68 0c-1.94,0 -3.36,-0.55 -4.32,-1.5 -1.04,-1.03 -1.51,-2.53 -1.51,-4.33l0 -10.85c0,-1.8 0.48,-3.29 1.51,-4.33 0.96,-0.96 2.38,-1.5 4.32,-1.5l8.68 0c1.94,0 3.36,0.55 4.32,1.5 1.04,1.03 1.51,2.53 1.51,4.33zm-0.81 10.85l0 -10.85c0,-1.58 -0.4,-2.88 -1.27,-3.75 -0.81,-0.81 -2.04,-1.27 -3.75,-1.27l-8.68 0c-1.71,0 -2.94,0.46 -3.75,1.27 -0.87,0.87 -1.27,2.17 -1.27,3.75l0 10.85c0,1.58 0.4,2.88 1.27,3.75 0.81,0.81 2.04,1.27 3.75,1.27l8.68 0c1.71,0 2.94,-0.46 3.75,-1.27 0.87,-0.87 1.27,-2.17 1.27,-3.75z"/>
   <path class="fil1" d="M20.87 5.82l0 8.53c0,0.25 -0.09,0.47 -0.24,0.64 -0.09,0.1 -0.2,0.18 -0.32,0.23 -0.12,0.05 -0.25,0.08 -0.39,0.08 -0.22,0 -0.45,-0.08 -0.64,-0.25 -0.84,-0.78 -1.7,-1.54 -2.53,-2.33 -0.02,-0.02 -0.05,-0.03 -0.08,-0.03 -0.03,0 -0.07,0.01 -0.09,0.03 -0.82,0.75 -1.74,1.55 -2.52,2.33 -0.19,0.17 -0.42,0.25 -0.64,0.25 -0.13,0 -0.26,-0.03 -0.39,-0.08 -0.12,-0.05 -0.23,-0.13 -0.32,-0.23 -0.15,-0.16 -0.24,-0.38 -0.24,-0.64l0 -8.53c0,-0.23 0.18,-0.41 0.41,-0.41l7.6 0c0.23,0 0.41,0.18 0.41,0.41zm-0.81 8.53l0 -8.12 -6.78 0 0 8.12c0,0.04 0.01,0.07 0.03,0.09 0.01,0.01 0.03,0.03 0.05,0.03 0.02,0.01 0.04,0.01 0.06,0.01 0.03,0 0.06,-0.01 0.09,-0.04l2.52 -2.32c0.18,-0.17 0.41,-0.25 0.64,-0.25 0.23,0 0.46,0.08 0.63,0.25 0.85,0.77 1.67,1.57 2.52,2.33 0.03,0.02 0.06,0.04 0.09,0.04 0.02,0 0.04,-0 0.06,-0.01 0.02,-0.01 0.04,-0.02 0.05,-0.03 0.02,-0.02 0.03,-0.05 0.03,-0.09z"/>
   <path class="fil2" d="M20.87 21.01c0,0.39 -0.05,0.77 -0.16,1.13 -0.1,0.36 -0.26,0.71 -0.45,1.03 -0.11,0.18 -0.23,0.36 -0.38,0.54 -0.14,0.17 -0.29,0.32 -0.45,0.45 -0.37,0.34 -0.81,0.6 -1.28,0.78l-0.02 0.01c-0.46,0.17 -0.95,0.26 -1.47,0.26 -0.75,0 -1.46,-0.2 -2.07,-0.54 -0.63,-0.36 -1.16,-0.88 -1.53,-1.5l-0.01 -0.02c-0.19,-0.32 -0.34,-0.66 -0.44,-1.02 -0.1,-0.36 -0.16,-0.74 -0.16,-1.13 0,-0.65 0.15,-1.27 0.41,-1.82 0.27,-0.57 0.67,-1.07 1.16,-1.46 0.37,-0.29 0.79,-0.53 1.24,-0.69l0.02 -0.01c0.43,-0.15 0.89,-0.23 1.37,-0.23 1.16,0 2.21,0.47 2.97,1.23 0.76,0.76 1.23,1.81 1.23,2.97zm-0.94 0.91c0.08,-0.29 0.12,-0.59 0.12,-0.91 0,-0.94 -0.38,-1.78 -0.99,-2.4 -0.61,-0.61 -1.46,-0.99 -2.4,-0.99 -0.39,0 -0.76,0.06 -1.1,0.18l-0.02 0.01c-0.37,0.13 -0.7,0.32 -1,0.56 -0.4,0.31 -0.72,0.72 -0.94,1.17 -0.21,0.44 -0.33,0.94 -0.33,1.47 0,0.32 0.04,0.62 0.12,0.91 0.08,0.29 0.2,0.56 0.35,0.81l0.02 0.03c0.3,0.5 0.72,0.92 1.23,1.21 0.49,0.28 1.06,0.44 1.67,0.44 0.42,0 0.82,-0.07 1.18,-0.21l0.02 -0.01c0.38,-0.14 0.73,-0.36 1.03,-0.63l0.01 -0.01c0.13,-0.11 0.25,-0.23 0.36,-0.36 0.11,-0.13 0.21,-0.27 0.3,-0.43l0.01 -0.01c0.16,-0.25 0.28,-0.54 0.36,-0.83z"/>
   <path class="fil2" d="M14.69 21.3c-0.16,-0.16 -0.16,-0.42 0,-0.58 0.16,-0.16 0.42,-0.16 0.58,0l0.8 0.8 2.02 -1.87c0.16,-0.15 0.42,-0.14 0.57,0.02 0.15,0.16 0.14,0.42 -0.02,0.57l-2.3 2.13c-0.16,0.16 -0.42,0.16 -0.58,0l-1.07 -1.07z"/>
  </g>
 </g>
</svg>
