<?xml version="1.0" encoding="UTF-8"?>
<!DOCTYPE svg PUBLIC "-//W3C//DTD SVG 1.1//EN" "http://www.w3.org/Graphics/SVG/1.1/DTD/svg11.dtd">
<!-- Creator: CorelDRAW -->
<svg xmlns="http://www.w3.org/2000/svg" xml:space="preserve" width="5.4187mm" height="5.4187mm" version="1.1" style="shape-rendering:geometricPrecision; text-rendering:geometricPrecision; image-rendering:optimizeQuality; fill-rule:evenodd; clip-rule:evenodd"
viewBox="0 0 33.52 33.52"
 xmlns:xlink="http://www.w3.org/1999/xlink"
 xmlns:xodm="http://www.corel.com/coreldraw/odm/2003">
 <defs>
  <style type="text/css">
   <![CDATA[
    .fil0 {fill:#454C5F}
    .fil2 {fill:#39FF14;fill-rule:nonzero}
    .fil1 {fill:white;fill-rule:nonzero}
   ]]>
  </style>
 </defs>
 <g id="Layer_x0020_1">
  <metadata id="CorelCorpID_0Corel-Layer"/>
  <circle class="fil0" cx="16.76" cy="16.76" r="16.76"/>
  <g id="_2960056142752">
   <path class="fil1" d="M27.22 12.37l0 5.77c0,0.76 -0.13,1.45 -0.36,2.08 -0.24,0.64 -0.61,1.21 -1.07,1.67 -0.46,0.46 -1.02,0.82 -1.66,1.06 -0.52,0.2 -1.1,0.32 -1.71,0.35l0 1.7c0,0.28 -0.08,0.53 -0.22,0.73 -0.12,0.18 -0.29,0.33 -0.48,0.44 -0.19,0.1 -0.41,0.16 -0.63,0.16 -0.24,0 -0.49,-0.07 -0.72,-0.22l-4.19 -2.79 -1.93 0c-0.2,0 -0.36,-0.16 -0.36,-0.36 0,-0.04 0.01,-0.08 0.02,-0.11 0.03,-0.13 0.06,-0.25 0.07,-0.37 0.02,-0.13 0.02,-0.26 0.02,-0.41 0,-0.44 -0.08,-0.86 -0.23,-1.24 -0.15,-0.4 -0.38,-0.77 -0.67,-1.08l-0.02 -0.02c-0.31,-0.35 -0.7,-0.64 -1.15,-0.84 -0.43,-0.19 -0.92,-0.3 -1.43,-0.3 -0.48,0 -0.94,0.1 -1.36,0.27 -0.43,0.18 -0.82,0.45 -1.14,0.78 -0.14,0.14 -0.37,0.15 -0.51,0.01 -0.05,-0.05 -0.09,-0.12 -0.1,-0.19 -0.05,-0.2 -0.08,-0.41 -0.1,-0.63 -0.02,-0.23 -0.03,-0.45 -0.03,-0.67l0 -5.77c0,-1.54 0.52,-2.83 1.43,-3.74l0 -0c0.91,-0.91 2.2,-1.43 3.74,-1.43l9.62 0c1.54,0 2.83,0.52 3.74,1.43l0 0c0.91,0.91 1.43,2.2 1.43,3.74zm-0.72 5.77l0 -5.77c0,-1.34 -0.44,-2.46 -1.22,-3.23 -0.77,-0.77 -1.89,-1.22 -3.23,-1.22l-9.62 0c-1.34,0 -2.46,0.44 -3.23,1.22 -0.77,0.77 -1.22,1.89 -1.22,3.23l0 5.77c0,0.19 0.01,0.37 0.02,0.53 0.27,-0.2 0.56,-0.36 0.87,-0.49 0.51,-0.21 1.06,-0.33 1.64,-0.33 0.61,0 1.19,0.13 1.72,0.37 0.53,0.24 1.01,0.59 1.39,1.02l0.01 0.02c0.34,0.38 0.62,0.82 0.8,1.31 0.18,0.47 0.28,0.98 0.28,1.5 0,0.16 -0.01,0.33 -0.03,0.5l-0 0.03 1.6 0c0.07,0 0.14,0.02 0.2,0.06l4.28 2.86c0.1,0.07 0.21,0.1 0.32,0.1 0.1,0 0.2,-0.03 0.29,-0.07 0.09,-0.05 0.16,-0.12 0.22,-0.2 0.06,-0.09 0.1,-0.21 0.1,-0.34l0 -2.05c0,-0.2 0.16,-0.36 0.36,-0.36 0.67,0 1.28,-0.11 1.82,-0.31 0.54,-0.21 1.02,-0.51 1.41,-0.9 0.39,-0.39 0.7,-0.87 0.91,-1.41 0.21,-0.54 0.31,-1.15 0.31,-1.82z"/>
   <path class="fil2" d="M14.72 22.05c0,0.39 -0.05,0.77 -0.16,1.13 -0.1,0.37 -0.26,0.71 -0.45,1.03 -0.11,0.19 -0.24,0.37 -0.38,0.54l-0.02 0.02c-0.14,0.16 -0.28,0.3 -0.43,0.43 -0.37,0.34 -0.81,0.6 -1.28,0.78 -0.46,0.18 -0.96,0.27 -1.49,0.27 -0.75,0 -1.46,-0.2 -2.07,-0.54 -0.63,-0.36 -1.16,-0.88 -1.53,-1.5l-0.01 -0.01c-0.19,-0.32 -0.34,-0.66 -0.44,-1.02 -0.1,-0.36 -0.16,-0.74 -0.16,-1.13 0,-0.65 0.15,-1.27 0.41,-1.82 0.27,-0.57 0.67,-1.07 1.16,-1.46 0.37,-0.29 0.79,-0.53 1.24,-0.69 0.44,-0.15 0.91,-0.24 1.39,-0.24 1.16,0 2.21,0.47 2.98,1.23l0.02 0.02c0.75,0.76 1.21,1.8 1.21,2.95zm-0.85 0.94c0.08,-0.3 0.13,-0.61 0.13,-0.94 0,-0.96 -0.38,-1.82 -1,-2.45l-0.02 -0.02c-0.63,-0.63 -1.5,-1.02 -2.47,-1.02 -0.4,0 -0.79,0.07 -1.15,0.2 -0.38,0.13 -0.72,0.33 -1.03,0.57 -0.41,0.32 -0.74,0.74 -0.96,1.21 -0.22,0.46 -0.34,0.97 -0.34,1.51 0,0.32 0.04,0.64 0.13,0.94 0.08,0.3 0.21,0.58 0.36,0.84l0.02 0.02c0.31,0.51 0.74,0.94 1.27,1.24 0.5,0.29 1.09,0.45 1.71,0.45 0.44,0 0.85,-0.08 1.23,-0.22 0.39,-0.15 0.75,-0.37 1.06,-0.65l0.01 -0.01c0.13,-0.11 0.25,-0.23 0.36,-0.35l0.01 -0.02c0.11,-0.14 0.22,-0.28 0.31,-0.44l0.01 -0.01c0.16,-0.26 0.29,-0.55 0.37,-0.86z"/>
   <path class="fil2" d="M8.75 22.31c-0.14,-0.14 -0.14,-0.37 0,-0.51 0.14,-0.14 0.37,-0.14 0.51,0l0.71 0.71 1.79 -1.66c0.15,-0.13 0.37,-0.13 0.51,0.02 0.13,0.15 0.13,0.37 -0.02,0.51l-2.04 1.89c-0.14,0.14 -0.37,0.14 -0.51,0l-0.95 -0.95z"/>
   <path class="fil1" d="M13.88 15.68c-0.2,0 -0.36,-0.16 -0.36,-0.36 0,-0.2 0.16,-0.36 0.36,-0.36l6.73 0c0.2,0 0.36,0.16 0.36,0.36 0,0.2 -0.16,0.36 -0.36,0.36l-6.73 0z"/>
  </g>
 </g>
</svg>
