<?xml version="1.0" encoding="UTF-8"?>
<!DOCTYPE svg PUBLIC "-//W3C//DTD SVG 1.1//EN" "http://www.w3.org/Graphics/SVG/1.1/DTD/svg11.dtd">
<!-- Creator: CorelDRAW -->
<svg xmlns="http://www.w3.org/2000/svg" xml:space="preserve" width="5.4187mm" height="5.4187mm" version="1.1" style="shape-rendering:geometricPrecision; text-rendering:geometricPrecision; image-rendering:optimizeQuality; fill-rule:evenodd; clip-rule:evenodd"
viewBox="0 0 35.31 35.31"
 xmlns:xlink="http://www.w3.org/1999/xlink"
 xmlns:xodm="http://www.corel.com/coreldraw/odm/2003">
 <defs>
  <style type="text/css">
   <![CDATA[
    .fil0 {fill:#454C5F}
    .fil2 {fill:#39FF14;fill-rule:nonzero}
    .fil1 {fill:white;fill-rule:nonzero}
   ]]>
  </style>
 </defs>
 <g id="Layer_x0020_1">
  <metadata id="CorelCorpID_0Corel-Layer"/>
  <circle class="fil0" cx="17.66" cy="17.66" r="17.66"/>
  <g id="_2960058403056">
   <path class="fil1" d="M29.41 17.66c0,0.23 -0.19,0.42 -0.42,0.42 -0.23,0 -0.42,-0.19 -0.42,-0.42 0,-3.01 -1.22,-5.74 -3.19,-7.71 -1.97,-1.97 -4.7,-3.19 -7.71,-3.19 -3.01,0 -5.74,1.22 -7.71,3.19 -1.97,1.97 -3.19,4.7 -3.19,7.71 0,3.01 1.22,5.74 3.19,7.71 1.97,1.97 4.7,3.19 7.71,3.19 0.23,0 0.42,0.19 0.42,0.42 0,0.23 -0.19,0.42 -0.42,0.42 -3.24,0 -6.18,-1.32 -8.31,-3.44 -2.13,-2.13 -3.44,-5.07 -3.44,-8.31 0,-3.24 1.32,-6.18 3.44,-8.31 2.13,-2.13 5.07,-3.44 8.31,-3.44 3.24,0 6.18,1.32 8.31,3.44 2.13,2.13 3.44,5.07 3.44,8.31z"/>
   <path class="fil1" d="M13.13 7.89c-0.23,0 -0.42,-0.19 -0.42,-0.42 0,-0.23 0.19,-0.42 0.42,-0.42l1.13 0c0.23,0 0.42,0.19 0.42,0.42 0,0.06 -0.01,0.12 -0.03,0.17 -1.08,3.25 -1.62,6.64 -1.62,10.03 0,3.4 0.54,6.8 1.63,10.06 0.07,0.22 -0.05,0.46 -0.27,0.54 -0.04,0.01 -0.09,0.02 -0.13,0.02l-1.13 0c-0.23,0 -0.42,-0.19 -0.42,-0.42 0,-0.23 0.19,-0.42 0.42,-0.42l0.55 0c-1,-3.18 -1.5,-6.48 -1.5,-9.77 0,-3.29 0.5,-6.59 1.5,-9.77l-0.55 0z"/>
   <path class="fil1" d="M20.65 7.6c-0.07,-0.22 0.05,-0.46 0.27,-0.53 0.22,-0.07 0.46,0.05 0.53,0.27 0.56,1.67 0.97,3.38 1.25,5.1 0.28,1.73 0.42,3.48 0.42,5.22 0,0.23 -0.19,0.42 -0.42,0.42 -0.23,0 -0.42,-0.19 -0.42,-0.42 0,-1.71 -0.14,-3.41 -0.41,-5.09 -0.27,-1.68 -0.68,-3.35 -1.22,-4.97z"/>
   <path class="fil1" d="M7.89 22.19c0,0.23 -0.19,0.42 -0.42,0.42 -0.23,0 -0.42,-0.19 -0.42,-0.42l0 -1.13c0,-0.23 0.19,-0.42 0.42,-0.42 0.06,0 0.12,0.01 0.17,0.04 1.62,0.54 3.27,0.94 4.93,1.21 1.68,0.27 3.38,0.41 5.09,0.41 0.23,0 0.42,0.19 0.42,0.42 0,0.23 -0.19,0.42 -0.42,0.42 -1.74,0 -3.49,-0.14 -5.22,-0.42 -1.53,-0.25 -3.05,-0.61 -4.55,-1.07l0 0.55z"/>
   <path class="fil1" d="M7.6 14.66c-0.22,0.07 -0.46,-0.05 -0.54,-0.27 -0.07,-0.22 0.04,-0.46 0.27,-0.54 3.35,-1.12 6.84,-1.68 10.33,-1.68 3.49,0 6.98,0.56 10.33,1.68 0.22,0.07 0.34,0.31 0.27,0.54 -0.07,0.22 -0.31,0.34 -0.54,0.27 -3.26,-1.09 -6.66,-1.63 -10.06,-1.63 -3.4,0 -6.8,0.54 -10.06,1.63z"/>
   <path class="fil2" d="M24.68 27.88c0.88,0 1.68,-0.36 2.26,-0.94l0.02 -0.02c0.57,-0.58 0.92,-1.37 0.92,-2.24 0,-0.88 -0.36,-1.69 -0.94,-2.26 -0.58,-0.58 -1.38,-0.94 -2.26,-0.94 -0.88,0 -1.68,0.36 -2.26,0.94 -0.58,0.58 -0.94,1.38 -0.94,2.26 0,0.88 0.36,1.68 0.94,2.26l0.02 0.02c0.58,0.57 1.37,0.92 2.24,0.92zm2.86 -0.34c-0.73,0.73 -1.75,1.19 -2.86,1.19 -1.1,0 -2.11,-0.44 -2.84,-1.16l-0.03 -0.02c-0.73,-0.73 -1.19,-1.75 -1.19,-2.86 0,-1.12 0.45,-2.13 1.19,-2.86 0.73,-0.73 1.75,-1.19 2.86,-1.19 1.12,0 2.13,0.45 2.86,1.19 0.73,0.74 1.19,1.75 1.19,2.86 0,1.11 -0.44,2.11 -1.16,2.84l-0.02 0.03z"/>
   <path class="fil2" d="M29.28 28.68c0.17,0.17 0.17,0.44 0,0.6 -0.17,0.17 -0.44,0.17 -0.6,0l-1.13 -1.13c-0.17,-0.17 -0.17,-0.43 0,-0.6 0.17,-0.17 0.44,-0.17 0.6,0l1.13 1.13z"/>
  </g>
 </g>
</svg>
